<svg width="1427" height="300" viewBox="0 0 1427 300" fill="none" xmlns="http://www.w3.org/2000/svg">
<rect width="533" height="300" fill="#63A2CD"/>
<rect x="533" width="894" height="300" fill="white"/>
<path d="M207.863 92.082C210.077 92.082 211.639 92.6029 212.551 93.6445C213.527 94.6211 214.016 96.3138 214.016 98.7227C214.016 101.132 213.527 102.857 212.551 103.898C211.639 104.875 210.077 105.363 207.863 105.363H202.59L189.113 203.801C188.788 206.145 187.941 207.772 186.574 208.684C185.272 209.66 183.319 210.148 180.715 210.148C175.376 210.148 172.056 208.033 170.754 203.801L152.688 147.062L134.426 203.801C133.059 208.033 129.673 210.148 124.27 210.148C121.73 210.148 119.777 209.66 118.41 208.684C117.108 207.707 116.327 206.079 116.066 203.801L103.078 105.363H98.293C96.0794 105.363 94.4844 104.875 93.5078 103.898C92.5964 102.857 92.1406 101.132 92.1406 98.7227C92.1406 96.3138 92.5964 94.6211 93.5078 93.6445C94.4844 92.6029 96.0794 92.082 98.293 92.082H131.887C134.1 92.082 135.663 92.6029 136.574 93.6445C137.551 94.6211 138.039 96.3138 138.039 98.7227C138.039 101.132 137.551 102.857 136.574 103.898C135.663 104.875 134.1 105.363 131.887 105.363H117.629L127.395 183.586L145.754 126.164C146.665 123.104 149.009 121.574 152.785 121.574C154.868 121.574 156.464 121.9 157.57 122.551C158.742 123.202 159.523 124.178 159.914 125.48L178.176 183.586L188.332 105.363H176.223C174.009 105.363 172.414 104.875 171.438 103.898C170.526 102.857 170.07 101.132 170.07 98.7227C170.07 96.3138 170.526 94.6211 171.438 93.6445C172.414 92.6029 174.009 92.082 176.223 92.082H207.863ZM313.137 166.008C315.806 166.008 317.694 166.496 318.801 167.473C319.908 168.449 320.461 170.077 320.461 172.355V201.359C320.461 203.768 319.973 205.493 318.996 206.535C318.085 207.512 316.522 208 314.309 208H227.004C224.79 208 223.195 207.512 222.219 206.535C221.307 205.493 220.852 203.768 220.852 201.359C220.852 198.951 221.307 197.258 222.219 196.281C223.195 195.24 224.79 194.719 227.004 194.719H236.965V105.363H227.004C224.79 105.363 223.195 104.875 222.219 103.898C221.307 102.857 220.852 101.132 220.852 98.7227C220.852 96.3138 221.307 94.6211 222.219 93.6445C223.195 92.6029 224.79 92.082 227.004 92.082H312.355C314.569 92.082 316.132 92.6029 317.043 93.6445C318.02 94.6211 318.508 96.3138 318.508 98.7227V123.527C318.508 125.806 317.954 127.434 316.848 128.41C315.741 129.387 313.853 129.875 311.184 129.875C308.514 129.875 306.626 129.387 305.52 128.41C304.413 127.434 303.859 125.806 303.859 123.527V105.363H251.613V141.594H276.809V132.707C276.809 130.428 277.297 128.801 278.273 127.824C279.315 126.848 281.138 126.359 283.742 126.359C286.346 126.359 288.137 126.848 289.113 127.824C290.155 128.801 290.676 130.428 290.676 132.707V163.762C290.676 166.04 290.155 167.668 289.113 168.645C288.137 169.621 286.346 170.109 283.742 170.109C281.138 170.109 279.315 169.621 278.273 168.645C277.297 167.668 276.809 166.04 276.809 163.762V154.875H251.613V194.719H305.812V172.355C305.812 170.077 306.366 168.449 307.473 167.473C308.579 166.496 310.467 166.008 313.137 166.008ZM395.852 92.082C403.469 92.082 409.947 93.3841 415.285 95.9883C420.624 98.5924 424.628 102.271 427.297 107.023C430.031 111.711 431.398 117.212 431.398 123.527C431.398 128.475 430.259 132.87 427.98 136.711C425.767 140.487 422.577 143.579 418.41 145.988C425.311 148.202 430.585 151.783 434.23 156.73C437.941 161.613 439.797 167.668 439.797 174.895C439.797 181.73 438.332 187.622 435.402 192.57C432.473 197.518 428.208 201.327 422.609 203.996C417.01 206.665 410.24 208 402.297 208H346.926C344.712 208 343.117 207.512 342.141 206.535C341.229 205.493 340.773 203.768 340.773 201.359C340.773 198.951 341.229 197.258 342.141 196.281C343.117 195.24 344.712 194.719 346.926 194.719H358.84V105.363H346.926C344.712 105.363 343.117 104.875 342.141 103.898C341.229 102.857 340.773 101.132 340.773 98.7227C340.773 96.3138 341.229 94.6211 342.141 93.6445C343.117 92.6029 344.712 92.082 346.926 92.082H395.852ZM373.488 141.496H393.703C401.19 141.496 406.854 139.934 410.695 136.809C414.536 133.684 416.457 129.257 416.457 123.527C416.457 117.538 414.569 113.013 410.793 109.953C407.017 106.893 401.32 105.363 393.703 105.363H373.488V141.496ZM373.488 194.719H399.367C407.375 194.719 413.527 192.993 417.824 189.543C422.186 186.092 424.367 181.21 424.367 174.895C424.367 161.483 416.197 154.777 399.855 154.777H373.488V194.719Z" fill="white"/>
<path d="M720.48 92.082C722.694 92.082 724.257 92.6029 725.168 93.6445C726.145 94.6211 726.633 96.3138 726.633 98.7227V124.504C726.633 126.783 726.079 128.41 724.973 129.387C723.866 130.363 721.978 130.852 719.309 130.852C716.639 130.852 714.751 130.363 713.645 129.387C712.538 128.41 711.984 126.783 711.984 124.504V105.363H659.738V143.547H684.543V134.66C684.543 132.382 685.031 130.754 686.008 129.777C687.049 128.801 688.872 128.312 691.477 128.312C694.081 128.312 695.871 128.801 696.848 129.777C697.889 130.754 698.41 132.382 698.41 134.66V165.715C698.41 167.993 697.889 169.621 696.848 170.598C695.871 171.574 694.081 172.062 691.477 172.062C688.872 172.062 687.049 171.574 686.008 170.598C685.031 169.621 684.543 167.993 684.543 165.715V156.828H659.738V194.719H682.395C684.608 194.719 686.171 195.24 687.082 196.281C688.059 197.258 688.547 198.951 688.547 201.359C688.547 203.768 688.059 205.493 687.082 206.535C686.171 207.512 684.608 208 682.395 208H632.199C629.986 208 628.391 207.512 627.414 206.535C626.503 205.493 626.047 203.768 626.047 201.359C626.047 198.951 626.503 197.258 627.414 196.281C628.391 195.24 629.986 194.719 632.199 194.719H645.09V105.363H632.199C629.986 105.363 628.391 104.875 627.414 103.898C626.503 102.857 626.047 101.132 626.047 98.7227C626.047 96.3138 626.503 94.6211 627.414 93.6445C628.391 92.6029 629.986 92.082 632.199 92.082H720.48ZM800.656 92.082C803.26 92.082 805.344 92.6029 806.906 93.6445C808.534 94.6211 809.738 96.2161 810.52 98.4297L844.992 194.719H850.949C853.163 194.719 854.725 195.24 855.637 196.281C856.613 197.258 857.102 198.951 857.102 201.359C857.102 203.768 856.613 205.493 855.637 206.535C854.725 207.512 853.163 208 850.949 208H816.379C814.165 208 812.57 207.512 811.594 206.535C810.682 205.493 810.227 203.768 810.227 201.359C810.227 198.951 810.682 197.258 811.594 196.281C812.57 195.24 814.165 194.719 816.379 194.719H829.562L821.555 171.477H774.191L766.086 194.719H777.902C780.116 194.719 781.678 195.24 782.59 196.281C783.566 197.258 784.055 198.951 784.055 201.359C784.055 203.768 783.566 205.493 782.59 206.535C781.678 207.512 780.116 208 777.902 208H745.285C743.072 208 741.477 207.512 740.5 206.535C739.589 205.493 739.133 203.768 739.133 201.359C739.133 198.951 739.589 197.258 740.5 196.281C741.477 195.24 743.072 194.719 745.285 194.719H750.754L783.078 105.363H764.816C762.603 105.363 761.008 104.875 760.031 103.898C759.12 102.857 758.664 101.132 758.664 98.7227C758.664 96.3138 759.12 94.6211 760.031 93.6445C761.008 92.6029 762.603 92.082 764.816 92.082H800.656ZM797.043 105.363L778.781 158.195H817.062L798.898 105.363H797.043ZM955.637 89.9336C958.306 89.9336 960.194 90.4219 961.301 91.3984C962.408 92.375 962.961 94.0026 962.961 96.2812V128.508C962.961 130.786 962.408 132.414 961.301 133.391C960.194 134.367 958.306 134.855 955.637 134.855C952.967 134.855 951.079 134.367 949.973 133.391C948.866 132.414 948.312 130.786 948.312 128.508C948.312 124.081 947.303 120.044 945.285 116.398C943.332 112.753 940.305 109.855 936.203 107.707C932.102 105.493 927.023 104.387 920.969 104.387C913.938 104.387 907.688 106.242 902.219 109.953C896.815 113.664 892.583 118.97 889.523 125.871C886.529 132.772 885.031 140.845 885.031 150.09C885.031 159.335 886.464 167.408 889.328 174.309C892.193 181.145 896.262 186.418 901.535 190.129C906.809 193.84 912.961 195.695 919.992 195.695C926.438 195.695 932.59 194.751 938.449 192.863C944.309 190.975 949.582 188.241 954.27 184.66C955.376 183.749 956.581 183.293 957.883 183.293C959.836 183.293 961.561 184.562 963.059 187.102C964.23 189.055 964.816 190.78 964.816 192.277C964.816 194.23 963.807 195.923 961.789 197.355C955.734 201.587 949.126 204.777 941.965 206.926C934.868 209.074 927.544 210.148 919.992 210.148C909.836 210.148 900.949 207.674 893.332 202.727C885.78 197.714 879.921 190.682 875.754 181.633C871.652 172.583 869.602 162.069 869.602 150.09C869.602 138.176 871.717 127.694 875.949 118.645C880.181 109.53 886.105 102.466 893.723 97.4531C901.405 92.4401 910.161 89.9336 919.992 89.9336C926.112 89.9336 931.548 90.9753 936.301 93.0586C941.053 95.1419 945.057 98.1042 948.312 101.945V96.2812C948.312 94.0026 948.866 92.375 949.973 91.3984C951.079 90.4219 952.967 89.9336 955.637 89.9336ZM1079.86 92.082C1082.07 92.082 1083.63 92.6029 1084.54 93.6445C1085.52 94.6211 1086.01 96.3138 1086.01 98.7227V135.539C1086.01 137.818 1085.45 139.445 1084.35 140.422C1083.24 141.398 1081.35 141.887 1078.68 141.887C1076.01 141.887 1074.13 141.398 1073.02 140.422C1071.91 139.445 1071.36 137.818 1071.36 135.539V105.363H1045.29V194.719H1068.33C1070.55 194.719 1072.11 195.24 1073.02 196.281C1074 197.258 1074.48 198.951 1074.48 201.359C1074.48 203.768 1074 205.493 1073.02 206.535C1072.11 207.512 1070.55 208 1068.33 208H1007.59C1005.38 208 1003.78 207.512 1002.8 206.535C1001.89 205.493 1001.44 203.768 1001.44 201.359C1001.44 198.951 1001.89 197.258 1002.8 196.281C1003.78 195.24 1005.38 194.719 1007.59 194.719H1030.64V105.363H1004.56V135.539C1004.56 137.818 1004.01 139.445 1002.9 140.422C1001.8 141.398 999.908 141.887 997.238 141.887C994.569 141.887 992.681 141.398 991.574 140.422C990.467 139.445 989.914 137.818 989.914 135.539V98.7227C989.914 96.3138 990.37 94.6211 991.281 93.6445C992.258 92.6029 993.853 92.082 996.066 92.082H1079.86ZM1157.88 89.9336C1168.04 89.9336 1176.99 92.4401 1184.74 97.4531C1192.55 102.466 1198.57 109.53 1202.8 118.645C1207.1 127.694 1209.25 138.176 1209.25 150.09C1209.25 162.004 1207.1 172.518 1202.8 181.633C1198.57 190.682 1192.55 197.714 1184.74 202.727C1176.99 207.674 1168.04 210.148 1157.88 210.148C1147.73 210.148 1138.74 207.674 1130.93 202.727C1123.18 197.714 1117.16 190.682 1112.86 181.633C1108.63 172.518 1106.52 162.004 1106.52 150.09C1106.52 138.176 1108.63 127.694 1112.86 118.645C1117.16 109.53 1123.18 102.466 1130.93 97.4531C1138.74 92.4401 1147.73 89.9336 1157.88 89.9336ZM1157.88 104.387C1150.72 104.387 1144.41 106.242 1138.94 109.953C1133.53 113.664 1129.33 118.97 1126.34 125.871C1123.41 132.772 1121.95 140.845 1121.95 150.09C1121.95 159.335 1123.41 167.408 1126.34 174.309C1129.33 181.145 1133.53 186.418 1138.94 190.129C1144.41 193.84 1150.72 195.695 1157.88 195.695C1165.04 195.695 1171.33 193.84 1176.73 190.129C1182.2 186.418 1186.4 181.145 1189.33 174.309C1192.32 167.408 1193.82 159.335 1193.82 150.09C1193.82 140.845 1192.32 132.772 1189.33 125.871C1186.4 118.97 1182.2 113.664 1176.73 109.953C1171.33 106.242 1165.04 104.387 1157.88 104.387ZM1281.22 92.082C1289.36 92.082 1296.33 93.4492 1302.12 96.1836C1307.98 98.918 1312.41 102.759 1315.4 107.707C1318.46 112.655 1319.99 118.417 1319.99 124.992C1319.99 132.414 1317.58 138.697 1312.77 143.84C1307.95 148.983 1301.34 152.499 1292.94 154.387C1296.59 155.819 1299.61 158.13 1302.02 161.32C1304.04 163.99 1305.77 166.659 1307.2 169.328C1308.63 171.932 1310.23 175.155 1311.98 178.996C1313.81 182.967 1315.21 185.865 1316.18 187.688C1318.72 192.375 1321.65 194.719 1324.97 194.719H1327.71C1329.92 194.719 1331.48 195.24 1332.39 196.281C1333.37 197.258 1333.86 198.951 1333.86 201.359C1333.86 203.768 1333.37 205.493 1332.39 206.535C1331.48 207.512 1329.92 208 1327.71 208H1320.68C1316.77 208 1313.45 206.991 1310.71 204.973C1308.05 202.889 1305.44 199.374 1302.9 194.426C1301.47 191.561 1299.71 187.785 1297.63 183.098C1295.68 178.801 1294.08 175.48 1292.84 173.137C1291.67 170.728 1290.24 168.352 1288.55 166.008C1286.59 163.273 1284.25 161.223 1281.52 159.855C1278.78 158.423 1275.49 157.707 1271.65 157.707H1258.37V194.719H1271.07C1273.28 194.719 1274.84 195.24 1275.75 196.281C1276.73 197.258 1277.22 198.951 1277.22 201.359C1277.22 203.768 1276.73 205.493 1275.75 206.535C1274.84 207.512 1273.28 208 1271.07 208H1231.81C1229.6 208 1228 207.512 1227.02 206.535C1226.11 205.493 1225.66 203.768 1225.66 201.359C1225.66 198.951 1226.11 197.258 1227.02 196.281C1228 195.24 1229.6 194.719 1231.81 194.719H1243.72V105.363H1231.81C1229.6 105.363 1228 104.875 1227.02 103.898C1226.11 102.857 1225.66 101.132 1225.66 98.7227C1225.66 96.3138 1226.11 94.6211 1227.02 93.6445C1228 92.6029 1229.6 92.082 1231.81 92.082H1281.22ZM1258.37 144.426H1278.2C1295.77 144.426 1304.56 137.948 1304.56 124.992C1304.56 118.742 1302.35 113.924 1297.92 110.539C1293.49 107.089 1287.24 105.363 1279.17 105.363H1258.37V144.426Z" fill="#63A2CD"/>
</svg>
