<svg xmlns="http://www.w3.org/2000/svg" version="1.1" xmlns:xlink="http://www.w3.org/1999/xlink" width="1000" height="1000"><g clip-path="url(#SvgjsClipPath1116)"><rect width="1000" height="1000" fill="#62a2cc"></rect><g transform="matrix(3.5,0,0,3.5,150,150)"><svg xmlns="http://www.w3.org/2000/svg" version="1.1" xmlns:xlink="http://www.w3.org/1999/xlink" width="200" height="200"><svg width="200" height="200" viewBox="0 0 200 200" fill="none" xmlns="http://www.w3.org/2000/svg">
<rect width="200" height="200" fill="#63A2CD"></rect>
<path d="M154.785 42.082C156.999 42.082 158.561 42.6029 159.473 43.6445C160.449 44.6211 160.938 46.3138 160.938 48.7227C160.938 51.1315 160.449 52.8568 159.473 53.8984C158.561 54.875 156.999 55.3633 154.785 55.3633H149.512L136.035 153.801C135.71 156.145 134.863 157.772 133.496 158.684C132.194 159.66 130.241 160.148 127.637 160.148C122.298 160.148 118.978 158.033 117.676 153.801L99.6094 97.0625L81.3477 153.801C79.9805 158.033 76.5951 160.148 71.1914 160.148C68.6523 160.148 66.6992 159.66 65.332 158.684C64.0299 157.707 63.2487 156.079 62.9883 153.801L50 55.3633H45.2148C43.0013 55.3633 41.4062 54.875 40.4297 53.8984C39.5182 52.8568 39.0625 51.1315 39.0625 48.7227C39.0625 46.3138 39.5182 44.6211 40.4297 43.6445C41.4062 42.6029 43.0013 42.082 45.2148 42.082H78.8086C81.0221 42.082 82.5846 42.6029 83.4961 43.6445C84.4727 44.6211 84.9609 46.3138 84.9609 48.7227C84.9609 51.1315 84.4727 52.8568 83.4961 53.8984C82.5846 54.875 81.0221 55.3633 78.8086 55.3633H64.5508L74.3164 133.586L92.6758 76.1641C93.5872 73.1042 95.931 71.5742 99.707 71.5742C101.79 71.5742 103.385 71.8997 104.492 72.5508C105.664 73.2018 106.445 74.1784 106.836 75.4805L125.098 133.586L135.254 55.3633H123.145C120.931 55.3633 119.336 54.875 118.359 53.8984C117.448 52.8568 116.992 51.1315 116.992 48.7227C116.992 46.3138 117.448 44.6211 118.359 43.6445C119.336 42.6029 120.931 42.082 123.145 42.082H154.785Z" fill="white"></path>
</svg></svg></g></g><defs><clipPath id="SvgjsClipPath1116"><rect width="1000" height="1000" x="0" y="0" rx="500" ry="500"></rect></clipPath></defs></svg>