<svg xmlns="http://www.w3.org/2000/svg" version="1.1" xmlns:xlink="http://www.w3.org/1999/xlink" width="500" height="500"><svg xmlns="http://www.w3.org/2000/svg" version="1.1" xmlns:xlink="http://www.w3.org/1999/xlink" width="500" height="500"><svg width="500" height="500" viewBox="0 0 500 500" fill="none" xmlns="http://www.w3.org/2000/svg">
<rect width="500" height="500" fill="#63A2CD"></rect>
<path d="M345.874 148.144C349.748 148.144 352.482 149.055 354.077 150.878C355.786 152.587 356.641 155.549 356.641 159.765C356.641 163.98 355.786 166.999 354.077 168.822C352.482 170.531 349.748 171.386 345.874 171.386H336.646L313.062 343.651C312.492 347.753 311.011 350.601 308.618 352.196C306.34 353.905 302.922 354.76 298.364 354.76C289.022 354.76 283.211 351.057 280.933 343.651L249.316 244.359L217.358 343.651C214.966 351.057 209.041 354.76 199.585 354.76C195.142 354.76 191.724 353.905 189.331 352.196C187.052 350.487 185.685 347.639 185.229 343.651L162.5 171.386H154.126C150.252 171.386 147.461 170.531 145.752 168.822C144.157 166.999 143.359 163.98 143.359 159.765C143.359 155.549 144.157 152.587 145.752 150.878C147.461 149.055 150.252 148.144 154.126 148.144H212.915C216.789 148.144 219.523 149.055 221.118 150.878C222.827 152.587 223.682 155.549 223.682 159.765C223.682 163.98 222.827 166.999 221.118 168.822C219.523 170.531 216.789 171.386 212.915 171.386H187.964L205.054 308.275L237.183 207.787C238.778 202.432 242.879 199.755 249.487 199.755C253.133 199.755 255.924 200.325 257.861 201.464C259.912 202.603 261.279 204.312 261.963 206.591L293.921 308.275L311.694 171.386H290.503C286.629 171.386 283.838 170.531 282.129 168.822C280.534 166.999 279.736 163.98 279.736 159.765C279.736 155.549 280.534 152.587 282.129 150.878C283.838 149.055 286.629 148.144 290.503 148.144H345.874Z" fill="white"></path>
</svg></svg><style>@media (prefers-color-scheme: light) { :root { filter: none; } }
@media (prefers-color-scheme: dark) { :root { filter: none; } }
</style></svg>